# xmcd CD database file
#
# Track frame offsets:
#	150
#	35730
#	63480
#	84780
#	116580
#	135330
#	169605
#	199245
#	234795
#	267195
#	282990
#
# Disc length: 4020 seconds
#
# Revision: 0
# Processed by: cddbd v1.5.2PL0 Copyright (c) Steve Scherf et al.
# Submitted via: CDex 1.51
#
DISCID=8f0fb20b
DTITLE=Monsieur Dubois - Soul Integration
DYEAR=2007
DGENRE=Jazz
TTITLE0=Murw
TTITLE1=Lou Leggings
TTITLE2=Spirit
TTITLE3=Berlin - 20
TTITLE4=The Soul Integration
TTITLE5=Carillo's Corner
TTITLE6=You Got Me Thinking
TTITLE7=Pulpo
TTITLE8=Gasoline From Babylon
TTITLE9=Spirit - (Radio Edit)
TTITLE10=You Got Me Thinking - (Radio Edit)
EXTD=YEAR: 2007
EXTT0=
EXTT1=
EXTT2=
EXTT3=
EXTT4=
EXTT5=
EXTT6=
EXTT7=
EXTT8=
EXTT9=
EXTT10=
PLAYORDER=
